<svg width="43" height="53" viewBox="0 0 43 53" fill="none" xmlns="http://www.w3.org/2000/svg">
<path d="M21.5 0.375L0.125 9.875V24.125C0.125 37.3063 9.245 49.6325 21.5 52.625C33.755 49.6325 42.875 37.3063 42.875 24.125V9.875L21.5 0.375ZM21.5 47.7088V26.5H4.875V12.9625L21.5 5.57625V26.4762H38.125C36.8663 36.2612 30.335 44.9775 21.5 47.7088Z" fill="#C2C2C2"/>
<path d="M3.5 12.5L21.5 4.5L22.5 4V25L39.5 25.5V28.5C37.8333 32.6667 33.6 41.8 30 45C26.4 48.2 22.1667 48.6667 20.5 48.5V27.5H4L3.5 12.5Z" fill="#C2C2C2"/>
</svg>
